# xmcd CD database file
#
# Track frame offsets:
#	150
#	12652
#	32447
#	48335
#	59682
#	75210
#	87937
#	102115
#	113502
#	129652
#	151572
#	165800
#	180522
#	192730
#	209352
#
# Disc length: 2929 seconds
#
# Revision: 0
# Processed by: cddbd v1.5.1PL0 Copyright (c) Steve Scherf et al.
# Submitted via: CDex 1.51
#
DISCID=b00b6f0f
DTITLE=Rita Reys瑞塔蕾 - The songbook of Jazz Diva爵士女伶之女伶情歌
DYEAR=1900
DGENRE=Jazz
TTITLE0=What a different a day makes
TTITLE1=The folks who live on the hill
TTITLE2=Over the rainbow
TTITLE3=Can't we be friends
TTITLE4=You must believe in spring
TTITLE5=Bubbles, bangles and beads
TTITLE6=Stars fell on Alabama
TTITLE7=September in the rain
TTITLE8=Body and soul
TTITLE9=I concentrate on you
TTITLE10=Second time around
TTITLE11=Thanks for the memory
TTITLE12=They say that allin love is wonderful
TTITLE13=Gone with the wind
TTITLE14=there'll never be another
EXTD=
EXTT0=
EXTT1=
EXTT2=
EXTT3=
EXTT4=
EXTT5=
EXTT6=
EXTT7=
EXTT8=
EXTT9=
EXTT10=
EXTT11=
EXTT12=
EXTT13=
EXTT14=
PLAYORDER=
